inDegrees=no
num_controls=7
num_derivatives=13
num_iterations=69
num_multipliers=7
num_parameters=0
num_slacks=7
num_states=26
objective=0.473486
objective_accelerations=0.038251
objective_balance=0.001205
objective_effort=0.016104
objective_height=0.407206
objective_ligament=0.010719
solver_duration=977.301558
status=Solve_Succeeded
success=true
DataType=double
version=3
OpenSimVersion=4.5
endheader
time	/jointset/ground_pelvis/pelvis_tilt/value	/jointset/ground_pelvis/pelvis_tx/value	/jointset/ground_pelvis/pelvis_ty/value	/jointset/hip_l/hip_flexion_l/value	/jointset/hip_l/hip_adduction_l/value	/jointset/hip_l/hip_rotation_l/value	/jointset/back/lumbar_extension/value	/jointset/patellofemoral_l/patellar_flexion_l/value	/jointset/knee_l/knee_flexion_l/value	/jointset/knee_l/knee_adduction_l/value	/jointset/knee_l/knee_rotation_l/value	/jointset/ankle_l/ankle_angle_l/value	/jointset/subtalar_l/subtalar_angle_l/value	/jointset/ground_pelvis/pelvis_tilt/speed	/jointset/ground_pelvis/pelvis_tx/speed	/jointset/ground_pelvis/pelvis_ty/speed	/jointset/hip_l/hip_flexion_l/speed	/jointset/hip_l/hip_adduction_l/speed	/jointset/hip_l/hip_rotation_l/speed	/jointset/back/lumbar_extension/speed	/jointset/patellofemoral_l/patellar_flexion_l/speed	/jointset/knee_l/knee_flexion_l/speed	/jointset/knee_l/knee_adduction_l/speed	/jointset/knee_l/knee_rotation_l/speed	/jointset/ankle_l/ankle_angle_l/speed	/jointset/subtalar_l/subtalar_angle_l/speed	/forceset/tau_hip_flexion_l	/forceset/tau_hip_adduction_l	/forceset/tau_hip_rotation_l	/forceset/tau_knee_flexion_l	/forceset/tau_ankle_angle_l	/forceset/tau_subtalar_angle_l	/forceset/tau_lumbar_extension	lambda_cid13_p0	lambda_cid13_p1	lambda_cid13_p2	lambda_cid13_p3	lambda_cid13_p4	lambda_cid13_p5	lambda_cid14_p0	/jointset/ground_pelvis/pelvis_tilt/accel	/jointset/ground_pelvis/pelvis_tx/accel	/jointset/ground_pelvis/pelvis_ty/accel	/jointset/hip_l/hip_flexion_l/accel	/jointset/hip_l/hip_adduction_l/accel	/jointset/hip_l/hip_rotation_l/accel	/jointset/back/lumbar_extension/accel	/jointset/patellofemoral_l/patellar_flexion_l/accel	/jointset/knee_l/knee_flexion_l/accel	/jointset/knee_l/knee_adduction_l/accel	/jointset/knee_l/knee_rotation_l/accel	/jointset/ankle_l/ankle_angle_l/accel	/jointset/subtalar_l/subtalar_angle_l/accel	gamma_cid13_p0	gamma_cid13_p1	gamma_cid13_p2	gamma_cid13_p3	gamma_cid13_p4	gamma_cid13_p5	gamma_cid14_p0
0	0.04575651483630841	0.1090368193220698	0.9028191813816893	0.1266922784136757	-0.3703983556247161	-0.2390241778707088	-0.2144969558742783	0.2051545070142652	0.2051545070141877	-0.1743565987168679	-0.1736467223811073	0.09024313228550125	0.07881259201237494	0	0	0	0	0	0	0	0	0	0	0	0	0	0.129342266524828	-0.04745883095977059	-0.01302692262701496	-0.25019579581037	0.1560871227619104	-0.09330130674307309	-0.06118860023061141	17.29390149633877	37.14839938168483	-5.810183459353598	2.646383221472365	-457.0840437682569	-46.06046588065084	-26.71843535202093	-5.717747429526602	-2.008959472602903	-0.6497435354927926	11.96304542474019	0.4272848315299262	2.080067221721969	-4.095580302527613	4.793081478375903	4.793081478376044	2.041222368663709	0.2535732973216108	-0.7509216228600986	0.2115407711614219	5.903420452896935e-08	3.974221990347147e-07	-7.059698070556579e-08	2.774006737119034e-08	5.21114375756193e-08	1.195348982052819e-07	7.807885326285611e-08
0.01	0.04547986265043312	0.1089375727391974	0.9027877672847718	0.1272745980010063	-0.3703765004911007	-0.2389230518370851	-0.2147013735798151	0.2053873647393367	0.2053873647389431	-0.1742552525086457	-0.1736339433447802	0.09020485794796405	0.07882351755256788	-0.05495779638033428	-0.01975783655507431	-0.006248305665581684	0.1157429397772243	0.004349487383023222	0.01952596985680717	-0.04029592483362548	0.04635636479209625	0.04635636479209398	0.02019907509913442	0.001971267263395159	-0.007648356763688636	0.002172220558380184	0.1218717713131254	-0.05549895280364224	-0.01138939111572675	-0.2398214313474895	0.1399542759033366	-0.08106517476424877	-0.05539598439332708	12.83462906660984	32.08994438699472	-4.403948861172929	4.808207790750004	-457.186905193841	-55.49732885683554	-26.71706248092606	-5.328890890002321	-1.945468196665038	-0.60718660200932	11.27178056562336	0.4354913874014661	1.783997126857567	-3.908456130387423	4.524621336490889	4.524621336490309	1.998786375778719	0.0812021558253264	-0.7707945661814678	0.2180741180368643	4.362497642293839e-08	2.667715771263873e-07	-7.154036275034221e-08	1.650064294650947e-08	-2.433314020561546e-09	6.747627749682956e-08	6.035759646398348e-08
0.02	0.04466481347112979	0.1086434933008317	0.9026949076272017	0.128992719448523	-0.3703118083445651	-0.2386476390532281	-0.2152911220450435	0.2060773275833686	0.2060773275833538	-0.1739540082910311	-0.1736189918933352	0.09009029967010179	0.07885576758231681	-0.1076793986690738	-0.03896657109867972	-0.01228911213050726	0.2271603720108168	0.008567402594495534	0.03485735008146659	-0.07706615193145788	0.09142102385875522	0.09142102385875124	0.03997960200803537	0.0004344831258706126	-0.0152567880497305	0.004264897911245267	0.1144012761037441	-0.06353907464677985	-0.009751859602021287	-0.2294470668836812	0.1238214290453681	-0.06882904278448194	-0.04960336855478047	8.396249199627489	27.03351775715647	-3.004533765709875	7.059894115787655	-456.8308707600409	-64.82935214993724	-26.71374916433228	-5.270508611206875	-1.899139070309348	-0.6082436953615555	11.09794391601368	0.400970397219717	1.241149295292382	-3.390440755368186	4.534740333288789	4.534740333289038	1.95751273061702	-0.4480369828625154	-0.742936527330833	0.195632130058332	2.821574831690743e-08	1.3612095521806e-07	-7.248374479511863e-08	5.261218521828603e-09	-5.69780656167424e-08	1.541765678837722e-08	4.263633966511083e-08
0.03	0.04333195825913989	0.1081599963713827	0.9025423257232389	0.1318046668602978	-0.3702069197520764	-0.2382325528077816	-0.2162348270961957	0.2072095569193913	0.2072095569196151	-0.1734606934904442	-0.1736298423663045	0.08989875980956825	0.07890668907638898	-0.1586419061237987	-0.05764659330821063	-0.01822028545452053	0.3345628598820845	0.01226663325381282	0.04830862212073288	-0.1115309761884539	0.1345779994718587	0.1345779994718559	0.05825413753097755	-0.002351550097983959	-0.02315401863412675	0.005730741419351979	0.1115198280344424	-0.05969472226456672	-0.009262762033905065	-0.2271060597445903	0.1228706155452055	-0.07125978014724986	-0.04736000676318267	8.007986719148686	28.13078914491722	-3.149336448677713	6.934488781445042	-456.1462747339136	-61.95431581541406	-26.7095107180842	-4.971655749336582	-1.839499567573329	-0.5845182856784764	10.46146821671146	0.3328273103561861	1.419440425636021	-3.452920942426795	4.139141134414879	4.139141134414897	1.698060879352276	-0.155948821254974	-0.8285330409212631	0.09374861799734341	3.049706663794368e-08	1.394369553553043e-07	-2.665787655751036e-08	3.778659724205199e-09	-1.537026189598531e-07	-2.530104899804492e-08	4.38471047395763e-08
0.04	0.04149697118520895	0.1074922860655774	0.9023306392590711	0.1356706525495374	-0.3700693532709474	-0.2376784889884514	-0.2175188639262614	0.2087599490037025	0.2087599490036855	-0.1727975059512884	-0.1736609656367575	0.08962516429979468	0.07896660663690452	-0.2081057710475323	-0.0758092463699561	-0.02411002417150652	0.4379680275144843	0.01510298031594317	0.06265286485568101	-0.1451325077078288	0.1750535734486874	0.1750535734486827	0.07395414970279811	-0.003620076486194236	-0.0316679178956262	0.006064111199930335	0.108638379964547	-0.05585036988224453	-0.00877366446908971	-0.2247650526055234	0.1219198020448985	-0.07369051750990119	-0.0451166449718484	7.637464431256555	29.22749605097277	-3.29695300391692	6.88989022025173	-455.069154289443	-58.99273038387966	-26.70417930261218	-4.970780105007619	-1.795665240752462	-0.5999567739560828	10.29847986824013	0.2283936777823414	1.419743434428612	-3.217782207843078	3.998460006034172	3.998460006033794	1.442608060392828	-0.1445356157338998	-0.8662702627515368	-0.03086261544733341	3.314313849355863e-08	1.455151538852408e-07	2.013230611890999e-08	2.497273413737619e-09	-2.512968589369212e-07	-6.578594210566232e-08	4.544822078050236e-08
